<?xml version="1.0" encoding="utf-8"?>
<!-- Generator: Adobe Illustrator 23.1.1, SVG Export Plug-In . SVG Version: 6.00 Build 0)  -->
<svg version="1.1" id="Layer_1" xmlns="http://www.w3.org/2000/svg" xmlns:xlink="http://www.w3.org/1999/xlink" x="0px" y="0px"
	 viewBox="0 0 100 82" style="enable-background:new 0 0 100 82;" xml:space="preserve">
<style type="text/css">
	.st0{fill-rule:evenodd;clip-rule:evenodd;fill:#AB78B3;}
</style>
<title>Group 16</title>
<desc>Created with Sketch.</desc>
<g id="Home_1_">
	<g id="Discover-Meditation---Desktop-Copy_1_" transform="translate(-252.000000, -932.000000)">
		<g id="Group-29" transform="translate(252.000000, 932.000000)">
			<path id="Fill-1_1_" class="st0" d="M53.2,38.1c-0.2,0-0.4-0.1-0.6-0.2c-0.5-0.3-0.7-1-0.3-1.5c0.1-0.1,2.2-3.4,8.6-2.5
				c0.6,0.1,1,0.7,0.9,1.2s-0.6,1-1.2,0.9c-5-0.7-6.5,1.4-6.5,1.5C54,38,53.6,38.1,53.2,38.1"/>
			<path id="Fill-3_1_" class="st0" d="M57.2,43c-1.7,0-3-0.3-3.1-0.3c-0.6-0.1-1-0.7-0.8-1.3c0.1-0.6,0.7-1,1.3-0.8
				c0.1,0,4.7,1,7.1-1c0.5-0.4,1.2-0.3,1.6,0.1s0.3,1.2-0.1,1.6C61.4,42.6,59,43,57.2,43"/>
			<path id="Fill-5_1_" class="st0" d="M48.4,38.1c-0.3,0-0.7-0.2-0.9-0.5c-0.1-0.1-1.6-2.2-6.5-1.5c-0.6,0.1-1.1-0.3-1.2-0.9
				s0.3-1.2,0.9-1.2c6.4-0.8,8.5,2.4,8.6,2.5c0.3,0.5,0.2,1.2-0.3,1.5C48.9,38.1,48.6,38.1,48.4,38.1"/>
			<path id="Fill-7_1_" class="st0" d="M44.5,43c-1.9,0-4.2-0.3-5.9-1.8c-0.5-0.4-0.5-1.1-0.1-1.6c0.4-0.5,1.1-0.5,1.6-0.1
				c2,1.7,5.8,1.3,7.1,1c0.6-0.1,1.2,0.3,1.3,0.8c0.1,0.6-0.3,1.2-0.8,1.3C47.4,42.7,46.1,43,44.5,43"/>
			<path id="Fill-9_1_" class="st0" d="M50.6,51c-0.8,0-1.7-0.3-2.4-0.9l-0.5-0.5c-0.5-0.4-0.5-1-0.1-1.5c0.4-0.4,1.1-0.5,1.5-0.1
				l0.5,0.5c0.5,0.5,1.2,0.5,1.8,0l0.5-0.5c0.5-0.4,1.1-0.4,1.5,0.1c0.4,0.5,0.4,1.1-0.1,1.5l-0.5,0.5C52.3,50.7,51.5,51,50.6,51"/>
			<path id="Fill-11_1_" class="st0" d="M50.8,55.8L50.8,55.8c0.1,0,1,0,2-0.6c-0.5-0.2-1.2-0.3-2.1-0.4c-0.8,0.1-1.5,0.3-2.1,0.4
				c1.1,0.6,2,0.6,2,0.6H50.8z M50.9,58h-0.1c-0.6,0-2.7-0.1-4.7-2.2c-0.2-0.2-0.3-0.5-0.3-0.8c0-0.3,0.1-0.6,0.4-0.8
				c0.1-0.1,1.6-1.4,4.7-1.6c0.1,0,0.1,0,0.1,0c3.1,0.2,4.5,1.5,4.7,1.6c0.2,0.2,0.3,0.5,0.4,0.8c0,0.3-0.1,0.6-0.3,0.8
				C53.6,57.9,51.5,58,50.9,58L50.9,58z"/>
			<path id="Fill-13_1_" class="st0" d="M50.9,61.3h-0.1c-0.1,0-0.6,0-1-0.1c-0.6-0.2-0.9-0.8-0.7-1.3s0.8-0.8,1.4-0.7
				c0.1,0,0.3,0.1,0.4,0.1c0.2,0,0.4,0,0.5-0.1c0.6-0.2,1.2,0.1,1.4,0.7c0.2,0.5-0.1,1.1-0.7,1.3C51.5,61.2,51.1,61.3,50.9,61.3"/>
			<path id="Fill-15" class="st0" d="M52.1,22.2c4.1,1.6,11.8,5.5,15.5,12.7c1.4-9.3-2.8-14.4-4-15.6C59,20,55.3,21.1,52.1,22.2
				 M49.1,23.5C37,29.2,34.8,37.8,34.8,38c-0.1,0.6-2.8,13.6,11,24.3c2.8,2.2,6.8,2.2,9.6,0C68.8,51.8,66.6,39,66.5,38
				C63,28.5,51.4,24.2,49.1,23.5 M50.6,66.1c-2.2,0-4.3-0.7-6.1-2.1c-15-11.6-12-25.9-11.9-26.5c0.1-0.7,4.1-16.6,31.1-20.4
				c0.3-0.1,0.6,0.1,0.8,0.3c0.3,0.3,8.3,7.2,4.3,21.9c0.4,4.2,0,15.3-12.1,24.7C54.9,65.4,52.8,66.1,50.6,66.1"/>
			<path id="Fill-17" class="st0" d="M33.7,38.7c-0.5,0-0.8-0.3-1-0.7c-0.1-0.4-3.6-9.1,0.5-17.6c2.8-6,8.6-10.3,17-12.9
				c0.6-0.2,1.2,0.1,1.4,0.7c0.2,0.6-0.1,1.2-0.7,1.4c-7.8,2.4-13.1,6.3-15.7,11.7C31.4,29,34.6,37,34.7,37.2
				c0.2,0.5-0.1,1.2-0.6,1.4C34,38.6,33.8,38.7,33.7,38.7"/>
			<path id="Fill-19" class="st0" d="M63.5,19.3c-0.3,0-0.7-0.1-0.9-0.5c-0.3-0.5-0.2-1.2,0.3-1.5c0.4-0.3,4-3.1,1-8.1
				c-2.2-3.7-9.1-5.9-14.1-4.6c-2.4,0.7-5.1,2.4-5.2,6.9c0,0.6-0.5,1-1.1,1s-1-0.5-1-1.1c0.1-4.6,2.5-7.8,6.8-8.9
				C55,0.9,63,3.7,65.6,8.1c3.3,5.5,0.3,9.6-1.6,11C63.9,19.2,63.8,19.3,63.5,19.3"/>
			<path id="Fill-21" class="st0" d="M39.9,72.6c0.5,2.4,4.8,4.7,10.6,4.7s10.1-2.4,10.6-4.7c-3.4-2.7-4.2-6.3-4.2-8.8
				c-0.1,0.1-0.2,0.1-0.3,0.3c-3.6,2.8-8.7,2.8-12.3,0c-0.1-0.1-0.2-0.1-0.3-0.3C44.1,66.3,43.3,69.9,39.9,72.6 M50.6,79.5
				c-7.2,0-12.9-3.3-12.9-7.4c0-0.4,0.2-0.7,0.5-0.9c5-3.5,3.7-9.5,3.7-9.7c-0.1-0.3,0-0.7,0.2-0.9c0.4-0.5,1.1-0.5,1.6-0.1
				c0.7,0.7,1.4,1.3,2.2,1.8c2.8,2.2,6.8,2.2,9.6,0c0.7-0.6,1.4-1.2,2.2-1.8c0.5-0.4,1.2-0.3,1.6,0.1c0.2,0.3,0.3,0.6,0.2,0.9
				c-0.1,0.3-1.2,6.3,3.7,9.7c0.3,0.2,0.5,0.5,0.5,0.9C63.5,76.3,57.8,79.5,50.6,79.5"/>
			<g id="Group-25" transform="translate(53.000000, 128.000000)">
				<g id="Clip-24">
				</g>
				<path id="Fill-23" class="st0" d="M26.3-48.5c-0.3,0-0.5-0.1-0.7-0.3c-4-3.9-9.2-6-14.6-6h-0.4c-0.9,3.7-6.1,6.3-12.7,6.3
					c-0.6,0-1.1-0.5-1.1-1.1c0-0.6,0.5-1.1,1.1-1.1c6.3,0,10.6-2.7,10.6-5.2C8.5-56.5,9-57,9.6-57H11c6,0,11.8,2.4,16.1,6.7
					c0.5,0.4,0.5,1.1,0,1.6C26.9-48.6,26.5-48.5,26.3-48.5"/>
			</g>
			<g id="Group-28" transform="translate(0.000000, 128.000000)">
				<g id="Clip-27">
				</g>
				<path id="Fill-26" class="st0" d="M22-48.5c-0.3,0-0.6-0.1-0.8-0.3c-0.4-0.5-0.4-1.1,0-1.6c4.4-4.3,10.1-6.7,16.1-6.7h1.4
					c0.6,0,1,0.5,1,1.1c0,2.5,4.4,5.2,10.6,5.2c0.6,0,1,0.5,1,1.1c0,0.6-0.5,1.1-1,1.1c-6.5,0-11.8-2.7-12.7-6.3h-0.4
					c-5.5,0-10.6,2.2-14.6,6C22.6-48.6,22.4-48.5,22-48.5"/>
			</g>
		</g>
	</g>
</g>
</svg>
