<?xml version="1.0" encoding="utf-8"?>
<!-- Generator: Adobe Illustrator 23.1.1, SVG Export Plug-In . SVG Version: 6.00 Build 0)  -->
<svg version="1.1" id="Layer_1" xmlns="http://www.w3.org/2000/svg" xmlns:xlink="http://www.w3.org/1999/xlink" x="0px" y="0px"
	 viewBox="0 0 200 63" style="enable-background:new 0 0 200 63;" xml:space="preserve">
<style type="text/css">
	.st0{fill:#AB78B3;}
</style>
<title>lookin-logo</title>
<desc>Created with Sketch.</desc>
<g id="Home">
	<g id="Desktop-Copy" transform="translate(-367.000000, -70.000000)">
		<g id="lookin-logo" transform="translate(367.000000, 70.000000)">
			<path id="Shape" class="st0" d="M68.2,39.2c-0.7-3.9-3.4-5.2-5.5-5.1c-2.4,0.1-4.3,1.8-4.5,4.1c-0.2,1.7,0.2,2.9,1,3.8
				c1,1,2.3,0.8,2.5,0.8c0.6-0.1,1-0.7,0.9-1.3s-0.7-1-1.3-0.9c0,0-0.4,0-0.6-0.2c-0.3-0.3-0.4-1-0.3-1.9c0.1-1.3,1.3-2,2.4-2.1
				c0.6,0,2.6,0.1,3.2,3.3c0.4,2-0.3,3.7-1.9,4.6c-1.7,1-4.6,1.2-7.1-0.9c-4-3.2-4.8-11.8-5.2-15.9c-0.1-1.5-0.2-2.4-0.4-2.9
				c-0.7-2.3-2.5-4.1-5.1-5.1c-0.8-0.3-1.5-0.5-2.1-0.6c0.9-1.6,1.4-3.6,1.4-5.6c0-6.1-4.4-11-9.9-11s-9.9,4.9-9.9,11
				c0,2.2,0.6,4.2,1.6,6c-0.7,0.1-1.5,0.3-2.4,0.7c-2.6,1-4.4,2.8-5.1,5.1c-0.2,0.5-0.2,1.3-0.4,2.9c-0.4,4.1-1.2,12.8-5.2,15.9
				c-2.5,2-5.4,1.9-7.1,0.9C5.7,43.7,5,42,5.4,40C6,36.9,8,36.7,8.6,36.8c1.1,0,2.3,0.8,2.4,2.1c0.1,0.9,0,1.6-0.3,1.9
				c0,0-0.1,0.1-0.2,0.1C9.9,41,9.6,41.5,9.6,42l0,0c0.1,0.7,0.8,1.2,1.5,1c0.3-0.1,0.7-0.3,1.1-0.7c0.8-0.8,1.2-2.1,1-3.8
				c-0.2-2.3-2.1-4-4.5-4.1c-2.1-0.1-4.8,1.2-5.5,5.1c-0.5,2.9,0.6,5.5,2.9,6.9l0,0c0,1,0.2,12.2,10.7,13.4c0.7,0.1,1.3,0.1,1.9,0.1
				c5.2,0,9.6-2.3,13.4-5c0.7,0.4,3.2,1.8,6.5,3.2c4.3,1.7,8.1,2.6,11.3,2.6c0.7,0,1.4,0,2.1-0.1c6.5-0.8,9.4-4.7,10.8-7.7
				c1.2-2.8,1.3-5.5,1.4-6.2c0.3-0.1,0.7-0.3,1-0.5C67.6,44.7,68.7,42.1,68.2,39.2z M35.7,4.4c4.2,0,7.6,3.9,7.6,8.7
				s-3.4,8.7-7.6,8.7c-1.3,0-2.6-0.4-3.7-1.1c-0.1-0.1-0.2-0.2-0.3-0.2c-2.2-1.5-3.6-4.3-3.6-7.5C28.1,8.4,31.5,4.4,35.7,4.4z
				 M33.3,23.8c0.8,0.2,1.6,0.3,2.4,0.3c0.9,0,1.8-0.1,2.7-0.4L36,31L33.3,23.8z M51.8,58.4c-6.4,0.8-14.8-3.3-17.7-4.9
				c0.9-0.7,1.7-1.4,2.6-2c1.4-1.1,2.7-2.2,3.9-3c5-3.3,8-2.5,8-2.5c0.6,0.2,1.2-0.1,1.4-0.7c0.2-0.6-0.1-1.2-0.7-1.4
				c-0.2-0.1-3.9-1.2-9.9,2.7c-1.3,0.9-2.6,1.9-4.1,3.1c-4.9,3.9-10.9,8.7-18.3,7.9s-8.5-7.8-8.7-10.3c0.5,0.1,1.1,0.2,1.6,0.2
				c2,0,4-0.7,5.7-2.1c4.7-3.8,5.6-12.7,6-17.5c0.1-1.1,0.2-2.1,0.3-2.4c0.5-1.6,1.8-2.9,3.8-3.7c1.6-0.6,3-0.7,3.1-0.7
				c0,0,0,0,0.1,0c0.4,0.5,0.9,0.9,1.4,1.2L34.7,34c-5.5,0.9-8.9,2.9-9,3c-0.5,0.3-0.7,1-0.4,1.5c0.3,0.5,1,0.7,1.5,0.4
				c0,0,3.6-2.1,9.2-2.8c2.2-0.3,4.1-0.1,5.7,0.2L26,39.5c-0.5,0.1-0.8,0.5-0.9,0.9c-0.1,0.5,0.2,0.9,0.6,1.1
				c0.2,0.1,4.5,2.4,11,2.4c2.8,0,6-0.4,9.6-1.5c0.6-0.2,0.9-0.8,0.7-1.4c-0.2-0.6-0.8-0.9-1.4-0.7c-6.5,2.1-11.9,1.5-15.3,0.6
				l16.2-3.3c0.5-0.1,0.8-0.5,0.9-0.9c0.1-0.5-0.2-0.9-0.6-1.1c-0.2-0.1-4-2-9.4-1.7l3.9-11.4l0,0c0.5-0.4,1-0.9,1.5-1.4
				c1.2,0.2,5.4,0.9,6.5,4.4c0.1,0.3,0.2,1.3,0.3,2.4c0.5,4.8,1.3,13.7,6,17.5c1.7,1.4,3.8,2.1,5.7,2.1c0.2,0,0.4,0,0.7,0
				C61.9,49.5,60.8,57.3,51.8,58.4z"/>
			<g id="Group" transform="translate(110.000000, 18.000000)">
				<path class="st0" d="M-28.6,27.2c-0.4,1-0.7,2.1-0.9,3s-0.4,1.9-0.4,2.9s0.2,1.9,0.7,2.7C-28.7,36.6-28,37-27,37
					c1.6,0,3.2-1.1,4.7-3.2c1.5-2.2,3.1-4.9,4.8-8.3c0.4-0.6,0.7-0.9,1-0.7c0.2,0.2,0.3,0.4,0.1,0.7c-0.1,0.3-0.4,0.9-0.8,1.9
					s-0.7,1.6-0.9,2c-0.2,0.4-0.6,1-1.1,2c-0.5,1-1,1.7-1.3,2.1c-0.4,0.5-0.9,1.1-1.5,1.8s-1.3,1.3-1.8,1.6c-1.6,1-3,1.5-4.4,1.5
					s-2.5-0.3-3.2-0.9c-0.8-0.6-1.2-1.2-1.4-1.9s-0.2-1.3-0.2-1.8s0-1.2,0.1-2.1c0.1-1.4,0.4-2.8,0.8-4.1s0.7-2.1,0.7-2.3
					c1-3.7,2.5-7.7,4.4-12.1s3.5-7.7,4.8-9.9c1.3-2.2,2.4-3.7,3.1-4.5c1.5-1.6,3-2.4,4.5-2.4c1,0,1.7,0.7,2.1,2.2
					c0,0.3,0.1,0.6,0.1,1c0,1.5-0.5,3.4-1.6,5.8c-3.8,8.5-8.4,15.2-13.7,20.1C-28,25.5-28.2,26.1-28.6,27.2z M-20.7,14.4
					c2.2-3.5,3.9-6.5,4.9-9s1.6-4.2,1.6-5.1S-14.4-1-14.7-1c-0.4,0-1.3,0.9-2.5,2.6s-2.9,4.9-5.1,9.5c-2.1,4.6-3.8,8.6-5.2,12
					C-25.1,20.9-22.9,18-20.7,14.4z"/>
				<path class="st0" d="M-5.3,14.9c3.3,0,4.9,2.1,4.9,6.2c0,1.9-0.5,3.9-1.5,6C-3.1,30-5,32.6-7.5,35c0.6,1.1,1.6,1.7,3.1,1.7
					c1.2,0,2.3-0.6,3.4-1.8c1.3-1.4,2.3-2.6,2.9-3.6c0.6-1,1-1.8,1.3-2.3s0.6-1.2,1-2.1C4.6,26,4.9,25.4,5,25.2
					c0.1-0.2,0.2-0.3,0.5-0.3c0.4,0,0.7,0.1,0.7,0.5c0,0.1,0,0.3-0.1,0.5l-0.4,0.9C5.4,27.3,5.2,27.7,5,28c-0.1,0.3-0.4,0.7-0.7,1.4
					C4,30.1,3.7,30.6,3.4,31c-0.2,0.4-0.6,0.9-1,1.6c-0.4,0.7-0.8,1.2-1.1,1.6C1,34.6,0.6,35,0.1,35.5s-1,0.9-1.4,1.1
					c-1.1,0.7-2.2,1-3.1,1c-1.8,0-3.3-0.6-4.3-1.7c-2.1,1.5-3.9,2.3-5.7,2.3c-3.3,0-4.9-2.1-4.9-6.2c0-1.9,0.5-3.9,1.5-6
					c1.3-3.1,3.2-5.8,5.7-8C-9.8,15.9-7.5,14.9-5.3,14.9z M-4.5,16.9c-1.2,0-2.6,0.8-4.3,2.4s-3.1,3.8-4.4,6.6
					c-1.6,3.2-2.3,5.8-2.3,7.9s0.8,3.1,2.3,3.1c1.1,0,2.4-0.6,3.7-1.8c-0.7-1-1.1-2.1-1.1-3.3c0.1-1.9,0.9-2.9,2.3-2.9
					c0.6,0,1.1,0.2,1.4,0.6c0.4,0.4,0.6,0.8,0.6,1.1s0,0.7-0.1,1c0.8-1.1,1.6-2.7,2.6-4.8c1.1-2.3,1.7-4.5,1.7-6.7
					C-2.1,18-2.9,16.9-4.5,16.9z"/>
				<path class="st0" d="M17.2,14.9c3.3,0,4.9,2.1,4.9,6.2c0,1.9-0.5,3.9-1.5,6C19.4,30,17.5,32.6,15,35c0.6,1.1,1.6,1.7,3.1,1.7
					c1.2,0,2.3-0.6,3.4-1.8c1.3-1.4,2.3-2.6,2.9-3.6c0.6-1,1-1.8,1.3-2.3s0.6-1.2,1-2.1s0.7-1.5,0.8-1.7c0.1-0.2,0.2-0.3,0.5-0.3
					c0.4,0,0.7,0.1,0.7,0.5c0,0.1,0,0.3-0.1,0.5l-0.4,0.9c-0.3,0.6-0.5,1.1-0.6,1.3c-0.1,0.3-0.4,0.7-0.7,1.4
					c-0.3,0.7-0.6,1.2-0.9,1.6c-0.2,0.4-0.6,0.9-1,1.6s-0.8,1.2-1.1,1.6c-0.3,0.4-0.7,0.8-1.2,1.3s-1,0.9-1.4,1.1
					c-1.1,0.7-2.2,1-3.1,1c-1.8,0-3.3-0.6-4.3-1.7c-2.1,1.5-3.9,2.3-5.7,2.3c-3.3,0-4.9-2.1-4.9-6.2c0-1.9,0.5-3.9,1.5-6
					c1.3-3.1,3.2-5.8,5.7-8C12.7,15.9,15,14.9,17.2,14.9z M17.9,16.9c-1.2,0-2.6,0.8-4.3,2.4s-3.1,3.8-4.4,6.6
					c-1.6,3.2-2.3,5.8-2.3,7.9s0.8,3.1,2.3,3.1c1.1,0,2.4-0.6,3.7-1.8c-0.7-1-1.1-2.1-1.1-3.3c0.1-1.9,0.9-2.9,2.3-2.9
					c0.6,0,1.1,0.2,1.4,0.6c0.4,0.4,0.6,0.8,0.6,1.1s0,0.7-0.1,1c0.8-1.1,1.6-2.7,2.6-4.8c1.1-2.3,1.7-4.5,1.7-6.7
					C20.4,18,19.5,16.9,17.9,16.9z"/>
				<path id="Path" class="st0" d="M44.7,20.2c0-1.2-0.6-1.8-1.8-1.8c-1.8,0-3.8,1-6.2,3c-2.3,2-4.3,4.2-5.9,6.4
					c-0.7,1.3-1.2,2.9-1.6,4.9s-0.6,3.3-0.6,4.1s0.1,1.2,0.4,1.5h-4.2c-0.7,0-0.8-0.6-0.5-1.8s0.8-2.5,1.4-3.8
					c0.6-1.4,1.3-3,2.2-4.8c0.9-1.8,1.5-3.2,1.9-4.1c-3.7,6.9-6,10.9-7.1,11.9C22.3,36.1,22,36,22,35.3c0-0.1,0-0.3,0.1-0.5
					c1.6-2.1,4.7-7.6,9.3-16.7S39.3,3,41.2,0.2c1.5-2.2,3-3.3,4.4-3.3h0.1H46c0,0,0.4,0.1,1.2,0.2c0.7,0.1,1.3,0.2,1.6,0.1
					c-1.7,1.2-3.9,4.1-6.8,8.6c-2.9,4.5-5.2,8.4-6.9,11.8s-2.8,5.9-3.4,7.7c4.1-5,7.7-8.2,10.9-9.4c1.5-0.5,2.7-0.7,3.6-0.7
					c2,0,2.9,0.8,2.9,2.5c0,0.5-0.1,1.1-0.3,1.8c-0.6,1.7-1.9,3.2-3.9,4.6c-1.9,1.4-4.1,2.2-6.4,2.4c-0.5,1.2-0.8,2.4-0.8,3.4
					s0.1,2,0.3,2.8c0.5,2.1,1.5,3.5,3,3.9c0.3,0.1,0.6,0.1,0.9,0.1c1.2,0,2.7-0.8,4.4-2.3c1.4-1.5,3.2-4.6,5.4-9.2
					c0.3-0.6,0.6-0.8,0.7-0.6c0.2,0.2,0.3,0.4,0.3,0.6s-0.3,1-1,2.6s-1.6,3.3-2.8,5.2c-2.5,3.8-5.4,5.8-8.4,5.8
					c-1.9,0-3.3-0.5-4.4-1.6c-1.5-1.5-2.2-3.5-2.2-6c0-1.2,0.3-2.5,1-3.8s1.5-2,2.3-2.1c0.1,0,0.3,0,0.4,0c1.6,0,3.1-0.6,4.6-1.8
					C43.9,22.3,44.7,21.2,44.7,20.2z"/>
				<path class="st0" d="M54.3,36.8c0.8,0,1.7-0.4,2.7-1.3c1.6-1.6,3.7-5,6.3-10.1c0.3-0.7,0.6-0.9,0.9-0.6c0.1,0.1,0.1,0.2,0.1,0.4
					c0,0.2-0.2,0.7-0.5,1.5c-0.4,0.8-0.7,1.5-1,2.1s-0.9,1.6-1.7,3c-0.8,1.4-1.6,2.5-2.2,3.2c-1.8,2.1-3.6,3.1-5.2,3.1
					c-1.6,0-2.8-0.5-3.5-1.5s-1.1-2.1-1.1-3.3s0.3-2.5,0.9-3.9l4.3-10.9c0.1-0.3,0.1-0.6,0.1-1.1c0-0.4-0.3-1-0.8-1.7l3.7-0.1
					c1,0,1.6,0.2,1.8,0.6s0,1-0.4,1.8l-5.4,12.5c-0.8,1.7-1.1,3.1-1.1,4.2C52.2,36.2,52.9,36.8,54.3,36.8z M60.9,12.2
					c-0.6,0.5-1.3,0.8-2.1,0.8s-1.4-0.3-1.8-0.8c-0.4-0.5-0.6-1.2-0.5-1.9c0.1-0.8,0.5-1.4,1.1-1.9s1.3-0.8,2.1-0.8s1.4,0.3,1.8,0.8
					c0.5,0.5,0.6,1.2,0.5,1.9C61.9,11.1,61.5,11.7,60.9,12.2z"/>
				<path class="st0" d="M83.6,16.3c-5.5,9.6-8.2,15.9-8.2,18.9c0,1.2,0.4,1.7,1.3,1.7c2.3,0,5.3-3.9,9.2-11.6
					c0.3-0.6,0.5-0.9,0.8-0.7c0.3,0.1,0.4,0.3,0.4,0.5s-0.1,0.5-0.3,0.8c-2.4,4.8-4.4,8.1-6,9.9s-3.3,2.7-4.9,2.7s-2.9-0.6-3.7-1.9
					c-0.4-0.6-0.7-1.4-0.7-2.4s0.2-2.2,0.7-3.6c0.4-1.4,1.7-3.7,3.7-7c0.5-0.8,0.7-1.4,0.7-1.9S76.2,21,75.5,21c-0.8,0-2.2,1-4.4,3
					c-3.2,2.9-6.3,7.4-9.3,13.3c-0.3,0.4-0.6,0.7-0.9,0.8s-1,0.2-2,0.2s-1.6,0.2-1.9,0.3c0.7-1.4,2.1-4.4,4.2-8.8
					c3.7-7.8,6.2-12.3,7.4-13.4c0.5-0.5,1.3-0.8,2.2-0.8c0.2,0,0.6,0.1,1.4,0.2c0.7,0.1,1.3,0.2,1.6,0.1c-1.7,0.9-4.4,5.1-8.1,12.6
					c2.1-2.6,4-4.7,5.7-6.2s3.8-3,6.2-4.3c2.4-1.3,4.2-2,5.3-2C83.1,16.2,83.3,16.2,83.6,16.3z"/>
			</g>
		</g>
	</g>
</g>
</svg>
